PathFileType	4	(X/Y/Z)	C:/Users/beibeiliu/ov580/test_trc/User1\sequence.13_training_dense_left.trc
DataRate	CameraRate	NumFrames	NumMarkers	Units	OrigDataRate	OrigDataStartFrame	OrigNumFrames
120	120	12	19	mm	120	1	67
Frame#	Time	ThumbCMC			ThumbMCP			ThumbIP			ThumbTip			IndexMCP			IndexPIP			IndexTip			MiddleMCP			MiddlePIP			MiddleTip			RingMCP			RingPIP			RingTip			PinkyMCP			PinkyPIP			PinkyTip			BackHand1			BackHand2			BackHand3	
		X0	Y0	Z0	X1	Y1	Z1	X2	Y2	Z2	X3	Y3	Z3	X4	Y4	Z4	X5	Y5	Z5	X6	Y6	Z6	X7	Y7	Z7	X8	Y8	Z8	X9	Y9	Z9	X10	Y10	Z10	X11	Y11	Z11	X12	Y12	Z12	X13	Y13	Z13	X14	Y14	Z14	X15	Y15	Z15	X16	Y16	Z16	X17	Y17	Z17	X18	Y18	Z18	
0	0	-122.713	23.3574	126.955	-98.75	9.02156	102.581	-85.7265	2.17219	75.8422	-86.0957	-12.7033	47.7403	-130.144	40.2204	41.2943	-119.144	32.0581	15.8454	-106.498	11.1858	-8.20918	-155.718	34.7447	29.1442	-149.076	28.3467	-0.655618	-139.682	11.8336	-27.4777	-172.723	17.668	28.5943	-168.026	10.7354	3.74698	-158.707	-4.87799	-17.7948	-191.494	-7.31263	42.1913	-186.057	-15.6329	24.255	-169.87	-24.0492	1.48207	-187.211	25.5695	86.7607	-195.199	21.3398	125.004	-161.704	40.2511	111.05	
1	0.00833333	-124.523	22.964	123.321	-98.93	10.1342	100.479	-91.7595	2.03851	74.8361	-86.447	-12.4682	48.528	-131.708	39.545	38.6812	-120.934	29.6484	10.5812	-109.376	8.81565	-9.77138	-155.663	34.0217	25.7983	-149.841	28.417	0.891135	-140.631	10.5562	-28.2385	-178.074	14.9244	29.1304	-167.619	9.24429	3.13356	-157.141	-8.03202	-22.4568	-191.048	-5.82979	45.8106	-184.759	-18.6573	19.5596	-173.543	-25.5505	0.397945	-190.077	22.289	89.1232	-195.049	22.8925	121.947	-161.17	39.9213	108.391	
2	0.0166667	-124.895	22.0507	124.852	-101.115	9.50873	102.659	-88.6886	1.95714	71.4387	-86.5761	-10.8772	52.7882	-126.507	40.3496	36.0994	-122.316	30.1861	12.5775	-108.711	14.2685	-7.42274	-158.748	33.2075	28.6602	-149.876	27.4348	-0.108933	-139.086	13.1421	-26.6996	-174.203	17.1633	31.7485	-166.425	6.62126	-0.403757	-158.594	-8.53428	-21.4506	-192.531	-6.25083	44.1897	-186.101	-17.7036	21.5297	-171.858	-25.3214	1.97838	-190.995	22.516	88.5518	-193.712	21.7072	121.704	-162.912	38.4387	110.637	
3	0.025	-121.46	25.5846	121.89	-101.538	11.5913	100.182	-90.8282	4.0694	73.6199	-86.6522	-9.35826	53.2819	-129.739	41.5963	37.4937	-118.645	35.1057	10.8939	-114.996	17.3384	-7.58167	-156.9	35.7747	31.4572	-149.78	29.118	-1.04142	-141.585	14.7302	-26.9779	-173.432	18.6309	30.2775	-168.145	9.37296	1.54522	-159.693	-1.08015	-17.033	-188.82	-2.02393	47.3531	-184.116	-10.5292	22.4415	-175.006	-18.9904	0.0177927	-188.365	23.5594	87.0555	-196.87	21.2546	120.938	-161.344	40.9417	109.05	
4	0.0333333	-124.918	24.4953	127.677	-99.1607	15.0208	100.475	-88.8396	7.31117	75.4092	-91.1825	-7.66439	49.9712	-127.56	50.3782	45.4727	-121.965	46.5458	18.4193	-112.244	33.9788	-5.92152	-153.23	44.941	29.9307	-145.759	39.4007	0.768128	-140.231	29.6988	-23.4141	-176.517	23.8053	33.545	-166.945	21.7662	2.55433	-160.729	10.2706	-20.2501	-192.378	1.85605	46.1245	-184.738	0.360666	25.5892	-179.243	-4.68557	-0.212791	-188.635	28.4749	90.4188	-190.858	27.2447	123.305	-160.086	42.1672	112.025	
5	0.0416667	-120.294	28.102	128.398	-96.1583	18.537	104.614	-93.2194	11.6754	73.5404	-102.279	-3.80764	50.483	-119.276	61.8747	55.0898	-115.401	61.7149	22.298	-105.806	55.3152	-0.0113637	-148.891	58.8765	37.2675	-139.886	61.5278	10.4727	-135.835	54.6117	-19.6996	-171.664	43.4249	38.3375	-165.043	46.6297	7.65015	-160.008	42.2428	-14.6792	-188.591	22.4808	48.8485	-185.22	22.9216	29.5693	-182.889	22.9972	2.55331	-180.81	39.5319	98.019	-188.883	33.4058	127.365	-151.483	48.8958	119.299	
6	0.05	-111.134	21.0369	135.878	-88.5392	8.35045	108.533	-93.0781	1.61981	81.9471	-110.126	-6.1826	59.0631	-102.583	60.2199	58.9326	-92.5377	62.2544	38.4339	-87.2309	59.2013	9.93456	-129.577	64.9872	45.2169	-118.638	68.8606	23.1996	-111.812	69.8749	-10.4469	-151.231	56.2926	49.4569	-146.469	64.0219	20.7474	-137.96	68.4797	-6.85539	-180.128	38.2968	53.8396	-177.521	44.4976	30.8949	-175.787	53.6788	10.3768	-166.577	45.3414	102.966	-180.584	40.7397	132.278	-142.155	49.471	126.515	
7	0.0583333	-107.328	10.2995	146.688	-84.0547	-4.35789	117.805	-88.3534	-7.99663	83.4389	-110.663	-15.4926	64.0645	-85.0966	45.3667	66.2584	-72.273	44.9924	41.9399	-68.9874	45.111	18.5843	-109.689	53.6655	50.3298	-99.8556	55.6902	27.911	-86.7387	58.751	-4.07746	-134.175	51.3803	53.0222	-130.13	59.261	25.6727	-121.822	64.3085	3.13809	-166.11	40.2983	57.1767	-163.243	46.0633	41.3502	-160.846	61.2027	17.5275	-158.903	43.4593	104.063	-169.092	41.7815	132.762	-127.35	44.7118	131.102	
8	0.0666667	-102.71	13.8698	149.854	-79.354	0.751784	122.954	-84.7904	-5.63058	94.4761	-108.006	-14.8148	74.3635	-79.0016	40.9905	72.1227	-65.5341	39.8022	46.05	-53.8681	38.9043	22.8175	-102.36	45.3463	55.4296	-91.4329	46.0159	26.4877	-79.2674	47.123	1.18731	-126.604	41.6678	51.6258	-119.517	47.0012	27.331	-106.363	51.8068	3.46852	-157.003	26.4468	62.2433	-151.958	33.6469	43.9384	-149.812	48.3272	21.2659	-150.273	36.8391	103.009	-167.504	36.6052	133.545	-126.395	42.2889	131.872	
9	0.075	-110.393	39.525	150.188	-76.2492	33.0273	124.69	-75.1358	19.2762	97.6982	-94.709	-2.39559	85.4649	-89.5897	58.9426	66.9057	-80.7359	55.7479	44.9106	-68.5399	53.3713	19.6675	-107.495	49.0759	49.1784	-94.5903	49.4758	26.1279	-82.3867	46.9536	-0.369764	-124.462	34.8602	48.2331	-120.03	33.943	24.3054	-105.781	36.2605	0.636297	-143.766	11.0887	63.5862	-140.437	13.9024	39.4856	-136.335	23.8009	18.7555	-156.695	28.1288	97.5114	-172.049	29.753	123.707	-139.495	52.8957	125.871	
10	0.0833333	-136.297	74.1449	134.759	-102.901	77.6446	112.522	-90.1052	56.7707	91.1606	-89.8109	24.0351	88.004	-120.375	68.5686	49.8478	-108.26	69.1261	28.8634	-93.0398	62.4875	3.93941	-122.895	46.5541	37.826	-109.646	47.6712	17.5119	-93.5415	42.0179	-8.11938	-124.893	20.5994	46.5431	-114.338	22.3047	23.0853	-99.6801	25.6309	-1.19515	-126.471	3.93314	68.3556	-119.046	2.3178	45.8453	-113.387	5.53131	23.3006	-155.946	17.7882	95.9208	-171.68	17.8476	120.326	-164.208	53.1973	109.911	
11	0.0916667	-169.56	74.8808	118.438	-141.575	94.7874	90.6	-116.915	78.6692	75.9094	-101.558	52.7705	84.695	-149.014	55.9581	34.2994	-137.062	54.6913	10.9201	-122.787	50.3914	-7.70482	-135.904	33.098	33.8894	-120.678	32.3405	8.68765	-102.549	32.346	-17.6228	-121.032	16.578	49.5839	-108.833	18.7215	25.7688	-93.74	17.0957	5.60874	-111.685	8.85002	68.524	-101.399	7.11019	56.316	-89.9158	1.00674	32.4735	-152.664	9.89253	95.1313	-168.335	6.79845	124.114	-179.154	41.2473	99.056	
